<svg width="40" height="40" viewBox="0 0 40 40" fill="none" xmlns="http://www.w3.org/2000/svg">
<path d="M19.8665 12.5333L20.8498 14.8333C20.9165 15.0333 21.0998 15.15 21.2831 15.1666L23.7831 15.4C24.3165 15.45 24.5165 16.1 24.1331 16.45L22.2498 18.1C22.0998 18.2333 22.0331 18.4333 22.0831 18.6166L22.6331 21.0666C22.7498 21.5833 22.1998 21.9833 21.7331 21.7166L19.5831 20.4333C19.4165 20.3333 19.1998 20.3333 19.0331 20.4333L16.8831 21.7166C16.4331 21.9833 15.8665 21.5833 15.9831 21.0666L16.5331 18.6166C16.5831 18.4333 16.5165 18.2333 16.3665 18.1L14.4831 16.45C14.0831 16.1 14.2998 15.45 14.8331 15.4L17.3331 15.1666C17.5331 15.15 17.6998 15.0333 17.7831 14.85L18.7665 12.55C18.9665 12.05 19.6498 12.05 19.8665 12.5333Z" stroke="black" stroke-width="2" stroke-miterlimit="10" stroke-linecap="round" stroke-linejoin="round"/>
<path d="M30.6455 17.4076C30.6886 11.1484 25.6494 6.03937 19.3902 5.99629C13.131 5.95321 8.02195 10.9924 7.97888 17.2516C7.9358 23.5109 12.975 28.6199 19.2342 28.663C25.4934 28.706 30.6025 23.6668 30.6455 17.4076Z" stroke="black" stroke-width="2" stroke-miterlimit="10" stroke-linecap="round" stroke-linejoin="round"/>
<path d="M17.7667 28.5499L14.95 35.6332L11.3833 31.5499L6 32.0499L9.56667 23.1166" stroke="black" stroke-width="2" stroke-miterlimit="10" stroke-linecap="round" stroke-linejoin="round"/>
<path d="M20.8335 28.5499L23.6668 35.6332L27.2168 31.5499L32.6168 32.0499L29.0335 23.1166" stroke="black" stroke-width="2" stroke-miterlimit="10" stroke-linecap="round" stroke-linejoin="round"/>
</svg>
