<svg width="40" height="40" viewBox="0 0 40 40" fill="none" xmlns="http://www.w3.org/2000/svg">
<path d="M13.7834 6.18334L17.2334 4.78334C18.5834 4.23334 20.1334 4.88334 20.6834 6.25L21.7334 8.81667C22.2834 10.1667 21.6334 11.7167 20.2667 12.2833L16.4501 13.8333C16.8501 15.75 17.4667 18 18.4334 20.4333C19.5167 23.1833 20.7667 25.45 21.9001 27.2667L25.7167 25.7167C27.0834 25.1667 28.6334 25.8167 29.1834 27.1833L30.2334 29.75C30.7834 31.1167 30.1334 32.6667 28.7667 33.2167L25.3167 34.6167L25.2501 34.65C21.5334 36.15 17.2501 34.7 15.3167 31.2C14.0167 28.85 12.7334 26.2167 11.5501 23.2667C10.4834 20.6 9.65005 18.05 9.01672 15.6833C7.96672 11.8 10.0001 7.75 13.7167 6.23334L13.7834 6.18334Z" stroke="black" stroke-width="2" stroke-miterlimit="10" stroke-linecap="round" stroke-linejoin="round"/>
</svg>
