<svg width="40" height="40" viewBox="0 0 40 40" fill="none" xmlns="http://www.w3.org/2000/svg">
<rect x="0.5" y="0.5" width="39" height="39" rx="19.5" stroke="#525252"/>
<path d="M31 11.01C31 11.01 28.982 12.202 27.86 12.54C27.2577 11.8475 26.4573 11.3567 25.567 11.1339C24.6767 10.9112 23.7395 10.9672 22.8821 11.2944C22.0247 11.6217 21.2884 12.2044 20.773 12.9637C20.2575 13.723 19.9877 14.6223 20 15.54V16.54C18.2426 16.5856 16.5013 16.1958 14.931 15.4054C13.3607 14.6151 12.0103 13.4486 11 12.01C11 12.01 7 21.01 16 25.01C13.9405 26.408 11.4872 27.1089 9 27.01C18 32.01 29 27.01 29 15.51C29 15.232 28.972 14.954 28.92 14.68C29.94 13.674 31 11.01 31 11.01Z" stroke="#525252" stroke-linecap="round" stroke-linejoin="round"/>
</svg>
