<svg width="40" height="40" viewBox="0 0 40 40" fill="none" xmlns="http://www.w3.org/2000/svg">
<rect x="0.5" y="0.5" width="39" height="39" rx="19.5" stroke="#525252"/>
<path d="M22 20L18.5 22V18L22 20Z" fill="#525252" stroke="#525252" stroke-width="1.5" stroke-linecap="round" stroke-linejoin="round"/>
<path d="M10 20.707V19.292C10 16.397 10 14.949 10.905 14.018C11.811 13.086 13.237 13.046 16.088 12.965C17.438 12.927 18.818 12.9 20 12.9C21.181 12.9 22.561 12.927 23.912 12.965C26.763 13.046 28.189 13.086 29.094 14.018C30 14.949 30 16.398 30 19.292V20.707C30 23.603 30 25.05 29.095 25.982C28.189 26.913 26.764 26.954 23.912 27.034C22.562 27.073 21.182 27.1 20 27.1C18.6958 27.0961 17.3916 27.0741 16.088 27.034C13.237 26.954 11.811 26.914 10.905 25.982C10 25.05 10 23.602 10 20.708V20.707Z" stroke="#525252"/>
</svg>
